<?xml version="1.0" ?><svg id="Icons" viewBox="0 0 24 24" xmlns="http://www.w3.org/2000/svg" xmlns:xlink="http://www.w3.org/1999/xlink"><defs><style>.cls-1{fill:url(#linear-gradient);}.cls-2{fill:url(#linear-gradient-2);}.cls-3{fill:url(#linear-gradient-3);}</style><linearGradient gradientUnits="userSpaceOnUse" id="linear-gradient" x1="12" x2="12" y1="5.043" y2="22.885"><stop offset="0" stop-color="#766cff"/><stop offset="1" stop-color="#3c3cef"/></linearGradient><linearGradient gradientUnits="userSpaceOnUse" id="linear-gradient-2" x1="12" x2="12" y1="0.798" y2="4.82"><stop offset="0" stop-color="#5d5c66"/><stop offset="1" stop-color="#48474f"/></linearGradient><linearGradient gradientUnits="userSpaceOnUse" id="linear-gradient-3" x1="12" x2="12" y1="8.298" y2="20.028"><stop offset="0" stop-color="#fff650"/><stop offset="1" stop-color="#ffab17"/></linearGradient></defs><rect class="cls-1" height="18" rx="3" width="14" x="5" y="5"/><path class="cls-2" d="M11,1h2a2,2,0,0,1,2,2V5a0,0,0,0,1,0,0H9A0,0,0,0,1,9,5V3A2,2,0,0,1,11,1Z"/><path class="cls-3" d="M11,20a1,1,0,0,1-.856-1.515L12.234,15H10a1,1,0,0,1-.857-1.515l3-5a1,1,0,0,1,1.714,1.03L11.766,13H14a1,1,0,0,1,.857,1.515l-3,5A1,1,0,0,1,11,20Z"/></svg>